<?xml version="1.0" standalone="no"?>
<!DOCTYPE svg PUBLIC "-//W3C//DTD SVG 20010904//EN"
 "http://www.w3.org/TR/2001/REC-SVG-20010904/DTD/svg10.dtd">
<svg version="1.0" xmlns="http://www.w3.org/2000/svg"
 width="2362.000000pt" height="2362.000000pt" viewBox="0 0 2362.000000 2362.000000"
 preserveAspectRatio="xMidYMid meet">

<g transform="translate(0.000000,2362.000000) scale(0.100000,-0.100000)"
fill="#000000" stroke="none">
<path d="M0 11810 l0 -11810 11810 0 11810 0 0 11810 0 11810 -11810 0 -11810
0 0 -11810z m12490 6895 c841 -85 1635 -323 2345 -703 1008 -538 1832 -1320
2417 -2292 439 -730 731 -1569 837 -2405 40 -318 46 -423 45 -815 0 -330 -3
-415 -23 -595 -84 -783 -275 -1446 -611 -2130 -177 -360 -363 -665 -591 -970
-260 -347 -492 -597 -884 -956 -251 -229 -680 -542 -980 -714 -818 -470 -1649
-734 -2595 -827 -209 -20 -930 -17 -1135 5 -1021 112 -1892 410 -2724 934
-216 136 -581 405 -716 529 -11 11 -61 55 -110 99 -814 725 -1411 1624 -1755
2642 -443 1307 -441 2706 4 4011 408 1195 1166 2232 2186 2992 917 683 2069
1114 3205 1200 77 6 158 12 180 14 102 10 760 -4 905 -19z m-5700 -12428 c0
-7 -19 -22 -42 -32 -61 -27 -135 -100 -171 -170 -30 -57 -32 -66 -32 -175 0
-70 5 -129 13 -152 l13 -38 50 25 c88 45 261 113 379 148 288 87 562 124 796
106 355 -27 517 -151 502 -385 -13 -205 -186 -339 -528 -411 -122 -25 -441
-25 -558 0 -225 50 -374 128 -518 274 l-74 75 -38 -28 c-20 -15 -91 -82 -157
-148 -233 -234 -383 -473 -462 -735 -34 -115 -43 -330 -19 -436 27 -115 88
-195 188 -246 58 -30 198 -38 286 -15 137 35 299 131 419 249 64 63 83 91 155
230 99 191 156 260 249 302 69 30 196 44 259 28 31 -8 35 -13 38 -45 4 -52
-31 -120 -164 -319 -63 -94 -114 -175 -114 -181 0 -17 -86 -181 -135 -258
-218 -338 -530 -613 -865 -760 -359 -158 -779 -172 -1053 -34 -89 45 -188 141
-222 216 -69 152 -43 373 55 462 99 89 290 60 336 -50 21 -49 18 -133 -6 -172
-21 -34 -74 -72 -102 -72 -22 0 -33 -50 -32 -145 2 -143 75 -231 225 -272 91
-24 329 -24 419 0 237 64 474 265 708 599 93 133 293 450 290 459 -2 5 -37
-19 -78 -52 -233 -186 -490 -289 -725 -289 -215 0 -350 63 -450 209 -84 123
-115 269 -96 449 20 195 74 338 194 520 152 229 407 455 725 642 71 42 74 45
68 74 -29 154 -26 245 11 334 42 102 147 195 261 231 1 1 2 -5 2 -12z m6760
-1072 c115 -8 208 -30 310 -73 107 -45 168 -85 247 -163 l62 -62 -72 -79 c-82
-89 -67 -91 -139 22 -160 250 -442 369 -712 300 -150 -38 -265 -121 -313 -226
-22 -49 -25 -66 -21 -138 7 -119 51 -192 177 -288 62 -47 135 -85 591 -305
226 -109 308 -162 395 -255 76 -80 109 -143 125 -240 25 -141 -21 -270 -134
-383 -100 -100 -235 -166 -421 -207 -99 -22 -389 -16 -507 10 -119 26 -228 68
-316 121 -74 45 -178 143 -168 159 8 13 134 102 144 102 4 0 22 -23 41 -51 91
-133 286 -262 456 -299 65 -15 210 -14 282 0 128 26 253 111 305 207 86 157
44 342 -103 458 -93 73 -210 139 -524 295 -323 161 -440 236 -516 333 -57 71
-77 115 -90 195 -15 91 6 201 53 280 94 156 324 272 578 291 58 4 123 6 145 5
22 -2 78 -6 125 -9z m3001 -9 c81 -23 195 -72 254 -108 49 -31 185 -138 185
-146 0 -2 -35 -41 -77 -88 l-77 -84 -21 58 c-92 253 -361 399 -624 337 -292
-69 -524 -383 -586 -795 -61 -400 52 -784 296 -1003 85 -76 200 -140 293 -164
83 -20 216 -22 296 -3 172 40 310 160 355 310 13 45 16 102 15 305 0 242 -1
251 -21 268 -19 15 -47 17 -255 17 -227 0 -234 1 -234 20 0 20 7 20 390 20
l390 0 0 -515 0 -515 -130 0 -130 0 0 120 c0 66 -3 120 -7 120 -5 -1 -24 -23
-43 -51 -140 -199 -461 -270 -775 -172 -366 115 -641 444 -706 842 -15 96 -12
304 6 400 79 413 393 748 785 836 84 19 340 13 421 -9z m-6441 4 c301 -48 545
-253 660 -554 71 -185 100 -405 81 -608 -28 -298 -126 -525 -297 -689 -119
-113 -222 -171 -377 -210 -73 -19 -119 -22 -433 -26 l-351 -5 -6 623 c-4 343
-7 816 -7 1052 l0 427 333 0 c182 0 361 -5 397 -10z m2320 -15 l0 -25 -428 0
c-320 0 -431 -3 -440 -12 -9 -9 -12 -135 -12 -504 0 -434 2 -494 16 -508 13
-14 58 -16 335 -16 312 0 319 0 319 -20 0 -20 -7 -20 -313 -20 -267 0 -316 -2
-335 -16 l-22 -15 0 -433 c0 -391 2 -435 17 -447 13 -11 98 -15 440 -17 413
-3 423 -3 423 -22 0 -20 -10 -20 -570 -20 l-569 0 -3 398 c-2 218 -4 691 -6
1050 l-2 652 575 0 575 0 0 -25z m2460 -1025 l0 -1050 -128 0 -129 0 -6 623
c-4 342 -7 814 -7 1050 l0 427 135 0 135 0 0 -1050z m3557 140 c277 -498 512
-918 524 -933 27 -37 79 -35 90 3 4 14 7 433 8 933 1 900 1 907 21 907 20 0
20 -7 20 -1050 l0 -1051 -137 3 -136 3 -489 880 c-268 484 -501 901 -517 927
-35 55 -75 73 -98 43 -11 -16 -13 -184 -13 -937 0 -884 -1 -918 -18 -918 -18
0 -19 28 -25 623 -4 342 -7 815 -7 1050 l0 428 137 -3 138 -3 502 -905z
m-9497 -965 c59 -30 79 -119 38 -170 -72 -92 -208 -47 -208 68 0 49 13 73 53
97 38 24 78 25 117 5z"/>
<path d="M12284 12490 l-1 -5500 56 0 c137 0 535 58 793 116 651 145 1295 418
1864 790 64 41 355 258 401 297 320 278 502 456 698 684 690 803 1132 1775
1284 2823 71 489 71 1079 0 1575 -68 472 -206 959 -396 1400 -756 1745 -2359
2981 -4233 3264 -113 17 -415 51 -454 51 -8 0 -11 -1478 -12 -5500z"/>
<path d="M11355 17973 c-16 -2 -97 -13 -180 -24 -1037 -138 -2047 -598 -2865
-1303 -151 -130 -459 -440 -582 -586 -302 -359 -534 -712 -738 -1125 -293
-595 -472 -1206 -545 -1870 -22 -201 -31 -740 -16 -956 111 -1558 859 -2982
2078 -3954 200 -159 333 -252 555 -386 619 -373 1350 -635 2063 -738 208 -30
315 -39 323 -27 4 6 8 1155 10 2554 l3 2542 -1340 0 -1341 0 0 370 c0 288 3
372 13 375 6 2 610 8 1341 12 l1330 8 -3 2555 -2 2555 -37 1 c-20 1 -50 0 -67
-3z"/>
<path d="M7530 5943 c-288 -45 -607 -173 -812 -325 l-68 -50 34 -40 c104 -121
247 -213 403 -259 88 -27 320 -37 429 -19 340 54 574 275 525 493 -25 113
-100 174 -241 196 -62 10 -217 13 -270 4z"/>
<path d="M9663 5149 c-10 -10 -13 -222 -13 -990 0 -848 2 -978 15 -989 22 -19
414 -8 478 13 149 50 249 141 322 292 92 190 127 378 127 685 0 308 -35 499
-127 686 -71 146 -157 228 -292 281 -65 25 -79 27 -283 31 -166 3 -218 1 -227
-9z"/>
</g>
</svg>
